PathFileType	4	(X/Y/Z)	Patient4_TMGait_0pt4_01_left_30.trc.trc
DataRate	CameraRate	NumFrames	NumMarkers	Units	OrigDataRate	OrigDataStartFrame	OrigNumFrames
74.866310160428	74.866310160428	4	33	mm	74.866310160428	18	       141
Frame#	Time	Sacral			L.Shoulder			Chest			R.Shoulder			Neck			R.ASIS			L.ASIS			R.Thigh.Superior			R.Thigh.Lateral			R.Thigh.Inferior			R.Patella			L.Thigh.Superior			L.Thigh.Lateral			L.Thigh.Inferior			L.Patella			L.Shank.Superior			L.Shank.Lateral			L.Shank.Inferior			R.Shank.Superior			R.Shank.Lateral			R.Shank.Inferior			R.Heel			R.Midfoot.Superior			R.Midfoot.Lateral			R.Toe			L.Heel			L.Midfoot.Lateral			L.Midfoot.Superior			L.Toe			L.Elbow			L.Wrist			R.Elbow			R.Wrist			
		X1	Y1	Z1	X2	Y2	Z2	X3	Y3	Z3	X4	Y4	Z4	X5	Y5	Z5	X6	Y6	Z6	X7	Y7	Z7	X8	Y8	Z8	X9	Y9	Z9	X10	Y10	Z10	X11	Y11	Z11	X12	Y12	Z12	X13	Y13	Z13	X14	Y14	Z14	X15	Y15	Z15	X16	Y16	Z16	X17	Y17	Z17	X18	Y18	Z18	X19	Y19	Z19	X20	Y20	Z20	X21	Y21	Z21	X22	Y22	Z22	X23	Y23	Z23	X24	Y24	Z24	X25	Y25	Z25	X26	Y26	Z26	X27	Y27	Z27	X28	Y28	Z28	X29	Y29	Z29	X30	Y30	Z30	X31	Y31	Z31	X32	Y32	Z32	X33	Y33	Z33	

18	36.947071428571	873.910686587165	1008.844190880939	551.071685184585	1042.223048369957	1431.738568934033	351.387373144859	1159.215889645920	1364.252173258886	503.302867169536	1094.584520216338	1444.352027561193	682.213252360872	1042.057801106487	1496.429761134251	505.395202406306	1108.613228531873	941.814934199242	649.885891198074	1076.229110142540	966.528345236154	377.533325338705	1120.684638391489	732.394976913053	616.132731649222	1030.383013206772	632.004304666977	683.461111374406	1091.078975957498	573.289578611357	597.548025634468	1079.680862044109	489.143701249289	602.989182344590	1152.918747461753	780.566284740276	407.995754988080	1109.892274375225	654.062589582947	324.950776759145	1210.169455284079	594.891695198754	390.327535866086	1237.714552642484	529.835169062257	386.447372779816	1219.319654449144	456.743058030649	375.050780182916	1151.971254820242	330.580553250474	315.937338106600	1231.424374429933	226.533359757172	373.790029585682	1048.591119891445	400.857794468406	611.389110197532	975.362073196625	299.811198255989	676.285787807220	1008.806591285647	204.441405860877	608.892526957479	867.467768031300	42.792779430011	580.641271530059	1038.803803243328	97.184885585634	614.124370606847	951.608951881750	36.655924355680	654.799059632557	1159.377229954949	45.891440987069	640.124865847134	1139.776607839976	50.081081376968	403.559520876295	1218.108534479676	52.829633461710	328.196869238467	1290.069424212734	128.011864987896	353.782129757641	1423.744523427333	95.402710757869	334.820872647127	954.696916919890	1087.389082605993	247.104201567336	973.255948315214	830.141612572153	212.378661627798	1156.722556230915	1110.561952210742	817.360739375264	1379.211806163585	1004.981553493660	747.646363661113	
19	36.960428571429	875.292522642617	1008.052405928428	549.569176960880	1041.667234011414	1431.330109268849	349.727637666847	1159.157034368442	1364.067929218651	501.371482635131	1094.610461893444	1443.849718592931	680.428454202689	1041.746023737979	1495.902573159949	503.795404766624	1109.871377345426	941.479379686192	648.591269451562	1077.478805568328	965.519356370933	376.079627124439	1120.073273348151	731.536338088624	615.219345354344	1028.672676260441	631.774615615072	682.658468027428	1088.827173713331	572.328842510197	597.020765149840	1076.647517706162	488.366529685754	602.508696646664	1153.560992718912	778.411777144248	406.522691010993	1108.031209840158	651.470149041775	324.956228580988	1208.437857270807	592.040494700856	389.556211672702	1234.901172909392	526.773862804955	386.411162132130	1216.359675799528	453.737911910870	375.324451947838	1148.081351211171	327.624226521295	317.544583439768	1227.530095828507	223.613619144427	375.322798388463	1045.020580795056	400.364506054307	611.009334503347	971.172292155176	299.851163762837	676.156721145630	1003.998139130712	204.175604741023	608.771896717093	862.070585874966	42.794376822495	580.658383071804	1033.378215687854	97.062469204767	614.054518297880	946.184346619998	36.616830034018	654.829324657818	1153.956322625080	45.806754116113	640.157359405485	1135.052470033603	48.686639182730	406.867548094370	1212.620712588238	50.311006644637	330.733277009215	1285.822095941417	124.267305802092	355.534539587998	1418.746180576585	89.710531728553	335.346926590614	953.064100371960	1087.363480996033	245.671250365459	971.767424156042	830.119026289593	210.598773107467	1158.925632927063	1109.924638079783	814.046142019650	1381.187608126938	1006.622877205717	740.730089625783	
20	36.973785714286	876.863300134027	1007.063750425615	547.825447644025	1041.162746085530	1430.793536571691	347.867828826995	1159.099392759424	1363.856733636362	499.316293676710	1094.444070819433	1443.229266534094	678.506046743661	1041.385742632897	1495.253421656255	502.020210132428	1111.379296595196	941.076175094427	647.263851881358	1079.050603787719	964.313837589832	374.557567092686	1119.862639406440	730.617688266949	614.321484235473	1027.284628590211	631.470472485028	681.766066696237	1086.957546449427	571.282338181256	596.470642780816	1073.959790775060	487.471122537601	601.940531728473	1154.455977493908	775.912020938561	404.980464736580	1106.263497005614	648.655051467179	325.044292157715	1206.772645249143	588.944070568726	388.956388526229	1231.971365364359	523.253183745695	386.506636272633	1213.060502899356	450.249933341384	375.700362877660	1143.329576580614	324.420845589368	319.361821146636	1222.449297426879	220.181137132854	377.042277239235	1041.738888764234	399.787502503213	610.546003961845	967.201894733174	299.883047657606	675.950067041987	999.296552075794	203.855434291317	608.606316108041	856.691223169373	42.785831056205	580.684970409299	1027.946964556799	96.905522292390	613.947519117686	940.771844971307	36.571485134095	654.857468708438	1148.554454773680	45.676234040651	640.203465700215	1128.499909791656	47.144748970105	410.353355861618	1205.223721914907	47.600823758557	333.344016628444	1279.943990138350	119.961581097026	357.503801185235	1412.004849944920	83.043326422354	335.844457875016	951.813891324557	1087.125786447992	244.032500031810	971.191218856938	829.908175919864	208.550115933011	1160.637857186814	1109.144388481660	810.740600063381	1382.430989260224	1007.659716329304	733.896451878593	
21	36.987142857143	878.576207948490	1005.926565357084	545.878586797358	1040.735617287192	1430.142746161763	345.804202882759	1159.065980160815	1363.623423651079	497.131360381739	1094.132124282249	1442.515080687580	676.441816452863	1041.012900318085	1494.508530128703	500.057534888924	1113.104670196412	940.599083097292	645.867861579179	1080.875260110122	962.974616445933	372.963927959919	1120.071747698416	729.641650978989	613.409774594768	1026.258834413298	631.085719534380	680.755169329359	1085.506893168116	570.158323797994	595.853607122856	1071.659809514430	486.448825208354	601.236548363681	1155.533040428603	773.151922535300	403.382564793886	1104.613425675310	645.747559663172	325.166036486320	1205.188324395769	585.724851642344	388.520513243613	1228.975317180244	519.454129400374	386.739744153515	1209.562760975518	446.469567167631	376.154847672270	1138.067368119623	321.096041080187	321.235809862259	1216.575772552953	216.441414054957	378.875471753791	1038.776243378085	399.120354119908	609.961193938310	963.482304178093	299.909825393149	675.639075669588	994.721293309510	203.482862216015	608.378715826262	851.329990882562	42.771612573321	580.721569713303	1022.516844491454	96.724475532655	613.806403528262	935.375188985269	36.524003275544	654.881738176527	1143.175312495240	45.495688467629	640.262378131838	1120.685082483098	45.495815598473	413.761903705617	1196.592949683793	44.877234636970	335.882497038681	1272.935685496572	115.410906668281	359.658119728467	1404.119383971537	75.964387108909	336.472028548577	950.966906638964	1086.680231506624	242.184628096631	971.487587593786	829.517490806819	206.236625760909	1161.846549391973	1108.228571347611	807.458979140737	1382.942619679345	1008.058078279435	727.210208076736	
